<?xml version="1.0" encoding="UTF-8" standalone="no"?>
<!DOCTYPE svg PUBLIC "-//W3C//DTD SVG 1.1//EN" "http://www.w3.org/Graphics/SVG/1.1/DTD/svg11.dtd">
<svg width="100%" height="100%" viewBox="0 0 862 157" version="1.1" xmlns="http://www.w3.org/2000/svg" xmlns:xlink="http://www.w3.org/1999/xlink" xml:space="preserve" xmlns:serif="http://www.serif.com/" style="fill-rule:evenodd;clip-rule:evenodd;stroke-linejoin:round;stroke-miterlimit:2;">
    <g id="Layer-1" serif:id="Layer 1">
        <g>
            <path d="M558.834,88.852C558.834,88.852 558.66,84.166 558.23,81.859C555.493,70.611 550.021,66.661 544.853,58.452C540.291,46.897 532.997,44.769 532.081,44.161C531.175,43.556 522.662,38.691 502.6,45.684C480.801,53.277 478.723,89.685 478.587,92.615C478.711,92.603 480.343,92.363 485.149,88.402L485.149,88.398C490.208,84.414 494.088,84.898 496.452,86.011C500.836,88.065 503.794,94.038 503.995,101.236C504.096,101.337 504.192,101.434 504.286,101.535C505.011,102.287 505.584,102.887 506.786,102.654C508.569,101.619 511.235,100.349 514.115,99.166C517.081,97.945 519.849,97 521.709,96.573L521.743,96.561L521.778,96.569C522.511,96.693 523.236,97 524.003,97.329C525.158,97.821 526.469,98.379 528.074,98.391C530.98,96.402 533.137,94.484 534.48,92.685C535.536,91.278 536.089,89.953 536.128,88.744C536.189,86.91 535.021,85.968 535.012,85.96L534.478,85.538L535.151,85.623L558.598,88.631L558.574,88.817L558.834,88.852Z" style="fill:#22707f;fill-rule:nonzero;"/>
            <path d="M535.632,86.844C536.02,87.317 536.547,88.204 536.508,89.522C536.465,90.809 535.888,92.213 534.787,93.681C533.411,95.522 531.209,97.484 528.236,99.511L528.19,99.546L528.132,99.546C526.422,99.546 525.058,98.965 523.857,98.453C523.124,98.138 522.43,97.841 521.755,97.724C517.953,98.607 510.771,101.543 506.948,103.775L506.922,103.791L506.887,103.795C506.674,103.841 506.476,103.86 506.29,103.86C505.251,103.86 504.647,103.228 504.015,102.569C503.91,102.457 503.794,102.341 503.677,102.224L503.627,102.174L503.623,102.096C503.444,95.008 500.565,89.131 496.293,87.127C493.041,85.602 489.27,86.41 485.386,89.472C480.227,93.72 478.646,93.77 478.583,93.77L478.583,93.58C473.816,106.554 467.335,103.918 467.335,103.918C461.254,105.74 466.319,130.466 475.235,138.168C481.475,143.554 488.111,140.015 491.533,137.404C496.793,145.283 504.623,150.051 508.678,151.338C511.794,153.168 514.755,149.668 516.507,149.745C518.251,149.818 520.686,150.353 522.81,150.959C527.636,152.338 527.601,146.097 527.829,145.261C528.896,144.729 530.566,143.892 532.081,141.613C530.717,139.71 533.911,137.664 533.911,137.664C533.911,137.664 536.341,139.787 540.597,136.748C544.853,133.71 540.597,127.934 541.205,120.639C542.876,114.407 547.892,114.86 550.628,113.035C552.598,109.802 556.121,99.557 555.443,89.383L535.632,86.844Z" style="fill:#22707f;fill-rule:nonzero;"/>
        </g>
        <g>
            <rect x="9.841" y="50.838" width="28" height="95" style="fill:#232323;"/>
            <rect x="9.841" y="10.838" width="28" height="32" style="fill:#232323;"/>
            <rect x="632.841" y="50.838" width="28" height="95" style="fill:#232323;"/>
            <rect x="632.841" y="10.838" width="28" height="32" style="fill:#232323;"/>
            <path d="M215.841,14.776L215.841,145.838L247.841,145.838L247.841,6.838L215.841,14.776Z" style="fill:#232323;fill-rule:nonzero;"/>
            <path d="M245.507,98.353L269.818,54.837L299.586,54.837L272.795,98.353L299.586,145.837L271.802,145.837L245.507,98.353Z" style="fill:#232323;fill-rule:nonzero;"/>
            <path d="M407.516,89.838C411.481,66.838 435.299,73.838 435.299,89.838L407.516,89.838ZM459.115,113.838C471.018,38.838 382.841,38.463 378.841,82.123L378.841,115.864C390.841,164.152 454.841,140.338 454.841,140.338L454.841,120.492C402.841,135.706 411.485,113.838 411.485,113.838L459.115,113.838Z" style="fill:#232323;fill-rule:nonzero;"/>
            <path d="M799.136,85.838C803.101,62.838 826.92,70.838 826.92,85.838L799.136,85.838ZM850.735,109.838C862.638,34.838 771.841,36.833 767.841,80.493L767.841,114.236C779.841,162.526 843.841,138.71 843.841,138.71L843.841,118.864C791.841,134.074 803.105,109.838 803.105,109.838L850.735,109.838Z" style="fill:#232323;fill-rule:nonzero;"/>
            <path d="M57.841,145.838L57.841,45.537C84.841,42.064 85.769,53.31 85.769,53.31C121.161,33.63 138.012,53.89 138.012,53.89C175.389,36.359 200.841,48.339 200.841,67.698L200.841,145.838L170.838,145.838C170.838,145.838 172.241,98.664 169.927,83.284C167.613,67.903 144.791,84.792 144.791,84.792L146.112,145.838L115.023,145.838C115.023,145.838 115.519,92.215 115.023,81.299C114.527,70.384 90.545,81.486 90.545,81.486L90.464,145.838L57.841,145.838Z" style="fill:#232323;fill-rule:nonzero;"/>
            <path d="M315.841,145.838L315.841,50.838L338.841,50.838L338.841,62.405C348.841,52.483 366.841,49.506 366.841,49.506L366.841,78.282C366.841,78.282 346.61,78.322 342.64,90.23L344.238,145.838L315.841,145.838Z" style="fill:#232323;fill-rule:nonzero;"/>
            <path d="M573.841,30.838L573.841,54.838L561.841,54.838L561.841,73.838L573.841,73.838L573.841,125.911C573.841,136.33 578.912,145.838 591.316,145.838L616.841,145.838L616.841,125.911L601.102,125.415L600.552,74.313L620.841,73.817L620.841,54.467L601.116,55.056L600.742,30.838L573.841,30.838Z" style="fill:#232323;fill-rule:nonzero;"/>
            <path d="M762.98,50.87L734.208,145.838L700.466,145.838L670.04,50.838L696.498,50.838L716.509,114.178L737.514,50.603L762.98,50.87Z" style="fill:#232323;fill-rule:nonzero;"/>
        </g>
    </g>
</svg>
